<svg xmlns="http://www.w3.org/2000/svg" width="18" height="18" viewBox="0 0 18 18" fill="none">
  <path d="M15.9626 6.20694L11.4995 5.55831L9.50436 1.51358C9.44987 1.40284 9.36022 1.31319 9.24948 1.2587C8.97174 1.12159 8.63424 1.23585 8.49537 1.51358L6.50026 5.55831L2.03717 6.20694C1.91412 6.22452 1.80162 6.28253 1.71549 6.37042C1.61136 6.47744 1.55398 6.62143 1.55596 6.77074C1.55794 6.92006 1.61911 7.06247 1.72604 7.16671L4.95514 10.3149L4.19225 14.7605C4.17436 14.8639 4.1858 14.9702 4.22528 15.0675C4.26476 15.1647 4.3307 15.2489 4.41561 15.3106C4.50053 15.3723 4.60102 15.4089 4.7057 15.4164C4.81039 15.4239 4.91507 15.4018 5.00787 15.3528L8.99987 13.254L12.9919 15.3528C13.1008 15.4108 13.2274 15.4302 13.3487 15.4091C13.6546 15.3564 13.8602 15.0663 13.8075 14.7605L13.0446 10.3149L16.2737 7.16671C16.3616 7.08057 16.4196 6.96807 16.4372 6.84503C16.4846 6.53741 16.2702 6.25264 15.9626 6.20694Z" fill="#3DDABE"/>
</svg>