<svg xmlns="http://www.w3.org/2000/svg" width="187" height="41" viewBox="0 0 187 41" fill="none">
  <path d="M13.8121 15.8365V17.9245H2.7241V27.3205H12.0841V29.4085H2.7241V41.0005H0.204102V15.8365H13.8121Z" fill="#3DDABE"/>
  <path d="M20.478 15.8365V41.0005H17.958V15.8365H20.478Z" fill="#3DDABE"/>
  <path d="M35.2566 28.4365L42.8886 41.0005H40.0806L33.6726 30.4885L27.5886 41.0005H24.7806L32.3766 28.3285L24.7806 15.8365H27.5886L33.9606 26.3125L40.1166 15.8365H42.9246L35.2566 28.4365Z" fill="#3DDABE"/>
  <path d="M60.8512 15.8365V17.9245H49.7632V27.3205H59.1232V29.4085H49.7632V41.0005H47.2432V15.8365H60.8512Z" fill="#3DDABE"/>
  <path d="M67.5171 15.8365V41.0005H64.9971V15.8365H67.5171Z" fill="#3DDABE"/>
  <path d="M92.1956 41.0005H89.6756L75.7436 19.8325V41.0005H73.2236V15.8365H75.7436L89.6756 36.9685V15.8365H92.1956V41.0005Z" fill="#3DDABE"/>
  <path d="M105.355 15.8365C108.139 15.8365 110.527 16.3405 112.519 17.3485C114.511 18.3565 116.035 19.8085 117.091 21.7045C118.147 23.6005 118.675 25.8565 118.675 28.4725C118.675 31.0645 118.147 33.3085 117.091 35.2045C116.035 37.0765 114.511 38.5165 112.519 39.5245C110.527 40.5085 108.139 41.0005 105.355 41.0005H97.9033V15.8365H105.355ZM105.355 38.9125C108.859 38.9125 111.523 38.0005 113.347 36.1765C115.195 34.3285 116.119 31.7605 116.119 28.4725C116.119 25.1605 115.195 22.5805 113.347 20.7325C111.523 18.8605 108.859 17.9245 105.355 17.9245H100.423V38.9125H105.355Z" fill="#3DDABE"/>
  <path d="M125.841 17.8885V27.2845H165V29.3725L125.841 29.3725V38.9125L166.08 38.9125V41.0005L123.321 41.0005V15.8005L166.08 15.8365V17.8885L125.841 17.8885Z" fill="#3DDABE"/>
  <path d="M183.892 41L177.664 30.4881H173.02V41H170.5V15.836H178.06C180.868 15.836 182.992 16.508 184.432 17.8521C185.896 19.1961 186.628 20.9601 186.628 23.1441C186.628 24.9681 186.1 26.5281 185.044 27.8241C184.012 29.0961 182.476 29.9241 180.436 30.3081L186.916 41H183.892ZM173.02 28.4361H178.096C180.064 28.4361 181.54 27.9561 182.524 26.996C183.532 26.036 184.036 24.7521 184.036 23.1441C184.036 21.4881 183.556 20.216 182.596 19.328C181.636 18.416 180.124 17.96 178.06 17.96H173.02V28.4361Z" fill="#3DDABE"/>
  <path d="M144.865 1.24091L165.987 17L123.088 17L144.865 1.24091Z" fill="white" stroke="#3DDABE" stroke-width="2"/>
</svg>