<svg xmlns="http://www.w3.org/2000/svg" width="36" height="36" viewBox="0 0 36 36" fill="none">
  <g clip-path="url(#clip0_58_1928)">
    <path d="M9.48844 14.4605L12.2822 17.2542L17.254 12.2823L14.4604 9.48866C15.2305 6.90602 14.5368 4.09612 12.603 2.16231C10.6115 0.170851 7.71045 -0.508227 5.03189 0.389945C4.70754 0.498719 4.4561 0.758031 4.35738 1.08562C4.25867 1.41313 4.32497 1.76828 4.5352 2.03814L7.46934 5.80429L5.80406 7.46964L2.03791 4.53536C1.76806 4.32505 1.41291 4.25882 1.08546 4.35754C0.757876 4.45626 0.498563 4.70762 0.38979 5.03205C-0.508523 7.71067 0.170556 10.6117 2.16209 12.6032C4.09589 14.537 6.90579 15.2307 9.48844 14.4605Z" fill="white"/>
    <path d="M26.5114 21.5393L23.7177 18.7456L18.7458 23.7174L21.5395 26.5111C20.7694 29.0937 21.4631 31.9036 23.3969 33.8375C24.8071 35.2477 26.6732 35.9999 28.5937 35.9998C29.3853 35.9998 30.1862 35.872 30.968 35.6098C31.2923 35.501 31.5438 35.2417 31.6425 34.9141C31.7412 34.5865 31.6749 34.2314 31.4647 33.9616L28.5305 30.1954L30.1958 28.5302L33.962 31.4643C34.2318 31.6745 34.5868 31.7407 34.9144 31.6421C35.242 31.5434 35.5013 31.292 35.6101 30.9676C36.5084 28.289 35.8293 25.388 33.8378 23.3965C31.9039 21.4628 29.0941 20.7692 26.5114 21.5393Z" fill="white"/>
    <path d="M9.72881 22.7909C9.31692 22.379 8.64916 22.379 8.23727 22.7909L1.02806 30.0001C-0.342686 31.3708 -0.342686 33.6012 1.02806 34.9719C2.3988 36.3427 4.62918 36.3427 5.99992 34.9719L13.2091 27.7627C13.621 27.3508 13.621 26.6831 13.2091 26.2712L9.72881 22.7909Z" fill="white"/>
    <path d="M27.8225 17.1268C28.2872 17.5915 28.9053 17.8476 29.5626 17.8476C30.22 17.8476 30.838 17.5915 31.3028 17.1268L35.2802 13.1492C36.2397 12.1898 36.2397 10.6285 35.2802 9.66899L26.3309 0.719613C25.3715 -0.239871 23.8102 -0.239871 22.8506 0.719613L18.8732 4.69712C17.9137 5.65661 17.9137 7.2179 18.8732 8.17738L27.8225 17.1268Z" fill="white"/>
    <path d="M20.1162 12.4033L11.2202 21.2992L11.2204 21.2993L14.7005 24.7795L23.5964 15.8836L20.1162 12.4033Z" fill="white"/>
  </g>
  <defs>
    <clipPath id="clip0_58_1928">
      <rect width="36" height="36" fill="white"/>
    </clipPath>
  </defs>
</svg>