<svg xmlns="http://www.w3.org/2000/svg" width="36" height="36" viewBox="0 0 36 36" fill="none">
  <g clip-path="url(#clip0_58_1940)">
    <path d="M20.9629 9.60926C16.599 8.69442 13.1881 5.28349 12.2734 0.919477C12.161 0.383766 11.6885 0 11.141 0C10.5935 0 10.121 0.383766 10.0087 0.919547C9.09391 5.28349 5.68298 8.69435 1.31903 9.60905C0.78325 9.72134 0.399414 10.1939 0.399414 10.7414C0.399414 11.2888 0.78318 11.7614 1.31903 11.8737C5.68291 12.7885 9.0937 16.1994 10.0085 20.5633C10.1208 21.0991 10.5933 21.4829 11.1408 21.4829C11.6882 21.4829 12.1608 21.0992 12.2731 20.5633C13.1879 16.1994 16.5989 12.7885 20.9629 11.8739C21.4987 11.7616 21.8825 11.2891 21.8825 10.7416C21.8824 10.1941 21.4987 9.72155 20.9629 9.60926Z" fill="white"/>
    <path d="M19.0502 28.7214C16.9942 28.2904 15.3871 26.6834 14.956 24.6271C14.8437 24.0914 14.3712 23.7075 13.8237 23.7075C13.2763 23.7075 12.8037 24.0912 12.6914 24.6271C12.2603 26.6832 10.6532 28.2903 8.59711 28.7213C8.06133 28.8336 7.67749 29.3062 7.67749 29.8536C7.67749 30.4011 8.06126 30.8736 8.59711 30.9859C10.6531 31.417 12.2602 33.0241 12.6913 35.0802C12.8035 35.616 13.276 35.9999 13.8236 35.9999C14.371 35.9999 14.8436 35.6162 14.9559 35.0802C15.387 33.0241 16.9941 31.417 19.0502 30.986C19.586 30.8737 19.9699 30.4011 19.9699 29.8537C19.9699 29.3062 19.5861 28.8337 19.0502 28.7214Z" fill="white"/>
    <path d="M34.6813 18.0097C31.9021 17.4271 29.7299 15.2549 29.1474 12.4758C29.0351 11.94 28.5626 11.5562 28.0151 11.5562C27.4676 11.5562 26.9951 11.9398 26.8828 12.4757C26.3002 15.2549 24.128 17.427 21.3488 18.0096C20.813 18.1219 20.4292 18.5944 20.4292 19.1419C20.4292 19.6893 20.813 20.1618 21.3488 20.2742C24.1279 20.8568 26.3001 23.029 26.8826 25.8082C26.9949 26.3439 27.4674 26.7278 28.0149 26.7278C28.5624 26.7278 29.035 26.3441 29.1472 25.8082C29.7299 23.029 31.9021 20.8568 34.6812 20.2743C35.217 20.162 35.6008 19.6895 35.6008 19.142C35.6008 18.5946 35.217 18.122 34.6813 18.0097Z" fill="white"/>
  </g>
  <defs>
    <clipPath id="clip0_58_1940">
      <rect width="36" height="36" fill="white"/>
    </clipPath>
  </defs>
</svg>