<svg xmlns="http://www.w3.org/2000/svg" width="36" height="36" viewBox="0 0 36 36" fill="none">
  <path d="M32.0235 24.6528H23.9344C23.915 24.7332 23.9036 25.5199 23.9036 25.6062C23.9036 26.1946 24.3806 26.6717 24.9691 26.6717H26.9134V29.4704H26.0918C25.5033 29.4704 25.0262 29.9475 25.0262 30.536C25.0262 31.1244 25.5033 31.6015 26.0918 31.6015H26.9134V31.9198C26.9134 32.5082 27.3905 32.9853 27.9789 32.9853C28.5674 32.9853 29.0445 32.5082 29.0445 31.9198V31.6015H29.8661C30.4546 31.6015 30.9316 31.1244 30.9316 30.536C30.9316 29.9475 30.4546 29.4704 29.8661 29.4704H29.0445V26.6717H30.9888C31.5773 26.6717 32.0543 26.1946 32.0543 25.6062C32.0543 25.5198 32.0429 24.7332 32.0235 24.6528Z" fill="white"/>
  <path d="M27.9791 3.01514C24.5842 3.01514 21.8223 5.77708 21.8223 9.17198C21.8223 11.4806 23.0998 13.4963 24.9849 14.5499H30.9734C32.8584 13.4962 34.136 11.4806 34.136 9.17198C34.136 5.77708 31.374 3.01514 27.9791 3.01514Z" fill="white"/>
  <path d="M34.9346 16.6807H21.0238C20.4353 16.6807 19.9583 17.1577 19.9583 17.7462V21.4668C19.9583 22.0492 20.4305 22.5215 21.0129 22.5215H34.9454C35.5279 22.5215 36.0001 22.0492 36.0001 21.4668V17.7462C36.0001 17.1577 35.523 16.6807 34.9346 16.6807Z" fill="white"/>
  <path d="M12.0656 24.6528H3.97635C3.95695 24.7332 3.94556 25.5199 3.94556 25.6062C3.94556 26.1946 4.42263 26.6717 5.01107 26.6717H6.95542V29.4704H6.13375C5.54531 29.4704 5.06824 29.9475 5.06824 30.536C5.06824 31.1244 5.54531 31.6015 6.13375 31.6015H6.95542V31.9198C6.95542 32.5082 7.43249 32.9853 8.02094 32.9853C8.60938 32.9853 9.08646 32.5082 9.08646 31.9198V31.6015H9.90813C10.4966 31.6015 10.9736 31.1244 10.9736 30.536C10.9736 29.9475 10.4966 29.4704 9.90813 29.4704H9.08652V26.6717H11.0309C11.6193 26.6717 12.0964 26.1946 12.0964 25.6062C12.0964 25.5198 12.085 24.7332 12.0656 24.6528Z" fill="white"/>
  <path d="M8.02086 3.01514C4.62596 3.01514 1.86401 5.77708 1.86401 9.17198C1.86401 11.4806 3.14152 13.4963 5.0266 14.5499H11.0152C12.9002 13.4962 14.1777 11.4806 14.1777 9.17198C14.1777 5.77708 11.4158 3.01514 8.02086 3.01514Z" fill="white"/>
  <path d="M14.9763 16.6807H1.06552C0.47707 16.6807 0 17.1577 0 17.7462V21.4668C0 22.0492 0.472219 22.5215 1.05469 22.5215H14.9872C15.5696 22.5215 16.0419 22.0492 16.0419 21.4668V17.7462C16.0419 17.1577 15.5648 16.6807 14.9763 16.6807Z" fill="white"/>
</svg>