<svg xmlns="http://www.w3.org/2000/svg" width="36" height="36" viewBox="0 0 36 36" fill="none">
  <path d="M29.0829 13.8804C29.0175 13.765 28.9226 13.6689 28.808 13.6021C28.6934 13.5353 28.5631 13.5001 28.4304 13.5001H18.6054L20.2526 0.914574C20.2702 0.746136 20.2307 0.576651 20.1404 0.433407C20.05 0.290163 19.9141 0.181497 19.7544 0.124903C19.5948 0.0683091 19.4208 0.0670818 19.2604 0.121418C19.1 0.175755 18.9625 0.282494 18.8701 0.424449L6.92189 21.3573C6.85202 21.471 6.81372 21.6012 6.81095 21.7346C6.80818 21.8679 6.84104 21.9996 6.90613 22.1161C6.97122 22.2325 7.06619 22.3295 7.18125 22.397C7.29631 22.4645 7.4273 22.5001 7.5607 22.5001H17.2389L15.9335 35.1046C15.9207 35.2725 15.9644 35.4398 16.0576 35.58C16.1508 35.7202 16.2883 35.8251 16.448 35.8782C16.6078 35.9312 16.7807 35.9293 16.9393 35.8728C17.0978 35.8162 17.2329 35.7083 17.3231 35.5661L29.0739 14.6354C29.142 14.5216 29.1788 14.3918 29.1803 14.2591C29.1819 14.1265 29.1483 13.9958 29.0829 13.8804Z" fill="white"/>
</svg>