<svg xmlns="http://www.w3.org/2000/svg" width="36" height="36" viewBox="0 0 36 36" fill="none">
  <path d="M14.694 30.4895C14.648 30.3671 14.6321 30.2631 14.6477 30.1789C14.6632 30.0953 14.6098 30.0259 14.4871 29.9725C14.3645 29.9192 14.3033 29.8768 14.3033 29.8465C14.3033 29.816 14.2154 29.7929 14.0392 29.7778C13.8631 29.7624 13.7752 29.7546 13.7752 29.7546H13.4769H13.2244H6.6121C5.60192 29.7546 4.73705 29.3952 4.01757 28.6754C3.29825 27.956 2.93863 27.0913 2.93863 26.0813V9.91793C2.93863 8.90775 3.29817 8.0432 4.01757 7.3238C4.73705 6.60432 5.60192 6.24446 6.6121 6.24446H13.959C14.158 6.24446 14.3145 6.19509 14.4295 6.09537C14.5441 5.9959 14.6205 5.84656 14.659 5.64762C14.6972 5.44867 14.7203 5.26902 14.728 5.10827C14.7356 4.94768 14.7319 4.74471 14.7165 4.49984C14.7013 4.25506 14.6936 4.10203 14.6936 4.04051C14.6936 3.84156 14.6209 3.66971 14.4755 3.524C14.3301 3.37893 14.158 3.30615 13.959 3.30615H6.6121C4.79084 3.30615 3.23335 3.95285 1.93987 5.24618C0.646703 6.5395 0 8.09675 0 9.91817V26.0812C0 27.9025 0.646703 29.4601 1.93987 30.753C3.23335 32.047 4.79084 32.6937 6.6121 32.6937H13.9593C14.1583 32.6937 14.3149 32.6436 14.4299 32.5446C14.5445 32.4449 14.6209 32.2958 14.6593 32.0966C14.6976 31.8979 14.7206 31.7173 14.7284 31.5572C14.7359 31.3965 14.7322 31.1939 14.7168 30.949C14.7014 30.7039 14.694 30.551 14.694 30.4895Z" fill="white"/>
  <path d="M35.5637 16.9668L23.074 4.4767C22.7834 4.18624 22.4389 4.04053 22.0409 4.04053C21.6429 4.04053 21.2984 4.18624 21.0075 4.4767C20.7166 4.76757 20.5713 5.11231 20.5713 5.51004V12.1223H10.2857C9.88746 12.1223 9.5432 12.268 9.25234 12.5585C8.96147 12.8493 8.81616 13.1938 8.81616 13.5918V22.4083C8.81616 22.8062 8.96147 23.1507 9.25234 23.4414C9.54352 23.7317 9.8877 23.8778 10.2857 23.8778H20.5714V30.49C20.5714 30.8876 20.7167 31.2324 21.0076 31.5231C21.2984 31.8139 21.6429 31.9596 22.041 31.9596C22.4389 31.9596 22.7834 31.8139 23.0741 31.5231L35.5637 19.0335C35.8546 18.7424 36 18.3984 36 18.0004C36 17.6025 35.8546 17.2576 35.5637 16.9668Z" fill="white"/>
</svg>