<svg xmlns="http://www.w3.org/2000/svg" width="36" height="36" viewBox="0 0 36 36" fill="none">
  <g clip-path="url(#clip0_58_1763)">
    <path d="M21.9653 14.0319C21.5389 13.6029 21.0661 13.2226 20.5556 12.8981C19.2036 12.0323 17.6319 11.5723 16.0264 11.5723C13.7981 11.5681 11.6604 12.4535 10.0875 14.0319L2.45686 21.6685C0.886638 23.2417 0.00409328 25.3733 0.00268729 27.596C-0.000265309 32.2344 3.7574 35.9969 8.39579 35.9999C10.6206 36.0076 12.7564 35.1265 14.3287 33.5523L20.6276 27.2535C20.7421 27.14 20.806 26.9852 20.805 26.8241C20.8032 26.4927 20.533 26.2257 20.2017 26.2276H19.9617C18.6457 26.2323 17.3414 25.9796 16.1224 25.4838C15.8978 25.3914 15.6397 25.4435 15.4686 25.6158L10.9394 30.1509C9.53296 31.5574 7.25271 31.5574 5.84629 30.1509C4.43987 28.7445 4.43987 26.4643 5.84629 25.0579L13.5069 17.4032C14.9122 15.9997 17.1888 15.9997 18.594 17.4032C19.5411 18.2946 21.0184 18.2946 21.9654 17.4032C22.3729 16.9954 22.6199 16.4545 22.6613 15.8795C22.7051 15.1923 22.4517 14.5193 21.9653 14.0319Z" fill="white"/>
    <path d="M33.5374 2.45999C30.2574 -0.819995 24.9395 -0.819995 21.6595 2.45999L15.3667 8.74683C15.1939 8.92047 15.144 9.18164 15.2407 9.40674C15.3362 9.63247 15.5595 9.77736 15.8046 9.77265H16.0265C17.341 9.77026 18.6431 10.025 19.8598 10.5225C20.0844 10.615 20.3425 10.5628 20.5137 10.3906L25.0308 5.87937C26.4373 4.47295 28.7175 4.47295 30.1239 5.87937C31.5304 7.28579 31.5304 9.56604 30.1239 10.9725L24.4969 16.5934L24.4489 16.6474L22.4813 18.6031C21.076 20.0066 18.7995 20.0066 17.3942 18.6031C16.4471 17.7118 14.9698 17.7118 14.0228 18.6031C13.6127 19.014 13.3655 19.5596 13.3269 20.1388C13.283 20.826 13.5365 21.499 14.0228 21.9865C14.7172 22.6838 15.5295 23.2524 16.4223 23.6662C16.5483 23.7261 16.6743 23.7741 16.8003 23.8281C16.9263 23.8821 17.0582 23.9241 17.1842 23.9721C17.3102 24.0201 17.4421 24.0621 17.5681 24.0981L17.9221 24.194C18.162 24.254 18.402 24.302 18.6479 24.344C18.9441 24.388 19.2425 24.416 19.5418 24.428H19.9617H19.9977L20.3576 24.386C20.4895 24.3801 20.6275 24.35 20.7835 24.35H20.9875L21.4014 24.2901L21.5934 24.2541L21.9413 24.1821H22.0073C23.4809 23.812 24.8264 23.049 25.9006 21.9745L33.5372 14.3379C36.8174 11.0579 36.8174 5.73997 33.5374 2.45999Z" fill="white"/>
  </g>
  <defs>
    <clipPath id="clip0_58_1763">
      <rect width="36" height="36" fill="white"/>
    </clipPath>
  </defs>
</svg>